<svg version="1.2" xmlns="http://www.w3.org/2000/svg" viewBox="0 0 1600 670" width="1600" height="670">
	<style>
		.s0 { fill: #b25534 } 
		.s1 { fill: #191313 } 
		.s2 { fill: #f5f1e7 } 
	</style>
	<g id="Background">
		<path id="Path 1" class="s0" d="m196.6 135.77c-2.37 3.7-7.69 12.8-11.83 20.23-4.13 7.43-10.78 20.02-14.77 28-4 7.97-10.17 20.8-13.72 28.5-3.56 7.7-9.07 20.07-12.27 27.5-3.19 7.43-7.47 17.55-9.52 22.5-2.05 4.95-5.72 14.18-8.16 20.5-2.44 6.32-6.48 17.12-8.97 24-2.49 6.87-6.33 17.68-8.54 24-2.2 6.32-6.64 19.82-9.86 30-3.21 10.18-7.91 25.7-10.44 34.5-2.52 8.8-7.46 27.7-10.97 42-3.51 14.3-8.04 34.1-10.07 44-3.38 16.45-3.67 19.12-3.34 31.02 0.34 12.27 0.55 13.4 3.55 19.5 2.15 4.35 4.62 7.56 7.5 9.77 2.37 1.81 6.56 3.97 9.31 4.79 2.75 0.82 8.83 1.5 13.5 1.52 4.68 0.01 12.55-0.67 17.5-1.52 4.95-0.84 13.05-2.7 18-4.14 4.95-1.44 12.15-3.42 16-4.42 3.85-0.99 10.6-2.5 15-3.37 4.4-0.86 12.95-2.03 19-2.61 6.05-0.58 14.38-1.04 18.5-1.03 4.13 0 13.8 0.68 21.5 1.49 7.7 0.82 18.72 2.64 24.5 4.06 5.78 1.41 14.1 3.64 18.5 4.95 4.4 1.31 12.73 3.32 18.5 4.48 5.77 1.16 14.32 2.12 19 2.14 4.68 0.02 10.52-0.49 13-1.15 2.48-0.66 6.07-2 8-2.99 1.93-1 4.69-3.09 6.14-4.65 1.45-1.56 3.59-4.75 4.75-7.09 1.16-2.34 2.62-7.51 3.23-11.5 0.62-3.99 0.86-11.07 0.54-15.75-0.33-4.68-2.42-17.27-4.66-28-2.24-10.73-6.51-29.4-9.5-41.5-2.98-12.1-7.94-30.77-11.02-41.5-3.08-10.73-6.74-23.1-8.13-27.5-1.38-4.4-4.99-15.43-8-24.5-3.02-9.07-8.44-24.6-12.06-34.5-3.62-9.9-10.3-27.23-14.84-38.5-4.54-11.27-10.49-25.68-13.22-32-2.73-6.32-8.2-18.48-12.16-27-3.96-8.53-11.48-23.82-16.71-34-5.23-10.18-13.19-24.68-17.69-32.23-4.49-7.56-8.75-13.96-9.47-14.23-0.78-0.31-2.99 2.14-5.6 6.23zm1221.4 297.31c-2.48 0.54-6.69 2.2-9.37 3.7-2.68 1.49-6.71 4.74-8.95 7.22-2.25 2.48-5.22 6.98-6.6 10-2.05 4.48-2.53 7.08-2.55 14-0.03 7.39 0.36 9.33 2.97 14.88 1.85 3.94 4.91 8.18 8 11.08 2.75 2.59 7.25 5.77 10 7.08 4.13 1.95 6.64 2.37 14.5 2.41 8.63 0.04 10.04-0.23 15.36-2.95 3.23-1.65 8.07-5.36 10.75-8.25 2.69-2.89 5.88-7.39 7.09-10 1.72-3.74 2.2-6.67 2.25-13.75 0.04-7.98-0.29-9.72-2.95-15.38-1.85-3.95-4.82-8.06-7.75-10.75-2.61-2.41-7.11-5.47-10-6.82-3.14-1.47-7.86-2.65-11.75-2.95-3.58-0.27-8.53-0.05-11 0.48z"/>
		<path id="Path 2" class="s1" d="m848 213v22h34v-44h-34zm-337 57.61c-5.23 0.76-13.77 2.53-19 3.93-5.23 1.39-13.45 3.98-18.29 5.75l-8.78 3.21c0.05 24.41 0.3 31.5 0.57 31.5 0.27 0 2.64-1.08 5.25-2.39 2.61-1.31 7.68-3.58 11.25-5.04 3.57-1.46 10.89-3.76 16.25-5.11 5.36-1.35 14.59-2.96 20.5-3.58 5.91-0.61 15.25-0.83 20.75-0.49 5.5 0.34 12.7 1.3 16 2.13 3.3 0.84 8.7 2.82 12 4.4 3.3 1.59 8.48 5.11 11.5 7.84 3.02 2.73 6.82 7.39 8.43 10.35 1.6 2.96 3.5 7.64 4.22 10.39 0.71 2.75 1.64 8.04 2.07 11.76l0.78 6.76c-52.28-0.02-65.76 0.44-74 1.45-6.6 0.81-16.05 2.64-21 4.07-4.95 1.44-12.6 4.48-17 6.76-5.44 2.83-10.26 6.4-15.08 11.18-5.12 5.08-8.07 9.09-10.7 14.52-1.99 4.13-4.39 10.43-5.33 14-1.18 4.47-1.72 10.56-1.75 19.5-0.02 7.34 0.53 15.39 1.26 18.5 0.72 3.02 3.12 9.32 5.33 14 3.21 6.76 5.6 10.05 11.65 16.06 5.49 5.44 9.72 8.58 15.12 11.23 4.12 2.03 10.2 4.42 13.5 5.33 3.89 1.08 11.45 1.82 21.5 2.11 12.93 0.37 17.16 0.1 25.5-1.61 6.81-1.39 12.87-3.46 19-6.5 5.61-2.77 11.45-6.67 15.5-10.36 3.58-3.25 8.19-8.24 10.25-11.09 2.06-2.84 4.2-4.94 4.75-4.67 0.6 0.3 1 6.33 1 15v14.5h35c-0.04-94.16-0.49-127.13-1.02-134-0.54-6.87-2.07-17-3.4-22.5-1.33-5.5-3.96-13.37-5.85-17.5-1.89-4.12-5.64-10.39-8.33-13.92-2.7-3.53-6.7-7.95-8.9-9.83-2.2-1.88-6.92-5.17-10.5-7.31-3.58-2.13-9.88-5.03-14-6.44-4.13-1.41-11.55-3.22-16.5-4.03-5.44-0.88-15.14-1.42-24.5-1.36-8.52 0.06-19.77 0.73-25 1.5zm267-0.11c-3.58 0.72-9.65 2.49-13.5 3.95-3.85 1.45-9.88 4.54-13.4 6.85-3.52 2.31-8.93 6.9-12.02 10.2-3.09 3.3-6.51 7.47-7.6 9.26-1.09 1.8-2.32 3.26-2.73 3.25-0.41 0-0.75-6.76-0.75-15.01v-15h-35v212h35c0.01-111.76 0.29-125.26 1.5-132.75 0.83-5.09 2.52-12.06 3.76-15.5 1.24-3.44 3.83-8.88 5.75-12.1 1.92-3.22 6.21-8.39 9.52-11.5 3.32-3.11 8.5-6.86 11.5-8.33 3.01-1.48 8.39-3.38 11.97-4.24 3.73-0.89 10.98-1.55 17-1.55 5.77 0 12.75 0.6 15.5 1.34 2.75 0.75 6.69 2.09 8.75 2.99l3.75 1.64 0.03-35.5c-7.39-1.17-14.7-1.47-21.03-1.41-6.33 0.05-14.42 0.69-18 1.41zm443 0.11c-5.22 0.77-13.78 2.52-19 3.9-5.22 1.38-13.45 3.96-18.29 5.75l-8.78 3.24c0.05 24.41 0.29 31.5 0.57 31.5 0.28 0 3.09-1.27 6.25-2.83 3.16-1.56 8.22-3.8 11.25-4.99 3.03-1.18 9.78-3.28 15-4.66 5.22-1.38 14.45-3.02 20.5-3.63 6.05-0.62 15.5-0.85 21-0.52 5.5 0.32 12.7 1.29 16 2.15 3.3 0.86 8.81 2.89 12.25 4.52 3.44 1.63 8.54 5.1 11.33 7.71 2.8 2.61 6.36 6.77 7.92 9.25 1.56 2.48 3.53 6.98 4.37 10 0.85 3.02 1.9 8.77 2.34 12.76l0.79 7.26c-46.5-0.02-64.95 0.47-71 1.07-6.05 0.61-15.28 2.19-20.5 3.51-5.22 1.33-13.78 4.54-19 7.15-7.24 3.61-11.18 6.4-16.58 11.74-5.3 5.25-8 8.96-10.75 14.76-2.02 4.26-4.42 10.79-5.33 14.5-1.09 4.46-1.65 11-1.65 19.25 0 8.39 0.55 14.64 1.67 19 0.91 3.57 3.3 9.88 5.3 14 2.68 5.53 5.63 9.48 11.24 15.07 5.57 5.55 9.6 8.54 15.1 11.2 4.12 1.99 10.2 4.37 13.5 5.29 3.71 1.03 11.53 1.85 20.5 2.16 10.89 0.37 16.87 0.08 24-1.17 5.22-0.91 12.42-2.82 16-4.24 3.58-1.42 9.42-4.49 13-6.82 3.58-2.34 9.76-7.68 13.75-11.87 3.99-4.19 7.25-8.07 7.25-8.62 0-0.55 0.67-1 1.5-1 1.26 0 1.5 2.28 1.5 14.5v14.5h35c-0.01-95.71-0.46-128.56-1.01-134.75-0.54-6.19-1.83-15.19-2.87-20-1.03-4.81-3.53-12.57-5.55-17.25-2.03-4.68-5.61-11.2-7.97-14.5-2.36-3.3-6.58-8.02-9.39-10.5-2.8-2.48-7.7-6.07-10.89-8-3.19-1.93-9.4-4.76-13.81-6.3-4.4-1.54-12.06-3.45-17.01-4.24-5.36-0.87-15.27-1.41-24.5-1.35-8.53 0.06-19.78 0.73-25 1.5zm-373 109.39v106h34v-212h-34zm77.54-103.75c0.39 1.24 17.94 48.15 38.99 104.25 21.05 56.1 38.54 102.79 38.87 103.75 0.55 1.6 2.62 1.75 24.35 1.75h23.75c16.93-45.34 23.52-63 25.55-68.5 2.04-5.5 6.43-17.2 9.76-26 3.33-8.8 14.14-37.6 24.03-64 9.89-26.4 18.47-49.24 19.07-50.75l1.09-2.75-37.16 0.5c-4.44 11.63-11.42 30.3-18.38 49-6.96 18.7-17.6 47.27-23.64 63.5-6.05 16.23-13.15 35.35-15.78 42.5-2.64 7.15-5.41 14.69-6.17 16.77-0.75 2.07-1.74 3.64-2.19 3.5-0.46-0.15-4.6-10.39-9.22-22.77-4.61-12.37-9.73-26.1-11.37-30.5-1.63-4.4-9.33-25.1-17.11-46-7.77-20.9-17.36-46.66-21.31-57.25l-7.17-19.24-36.69-0.01z"/>
		<path id="Path 3" class="s2" d="m200.29 233.25c-0.51 0.69-3.45 6.88-6.52 13.75-3.08 6.88-8.08 18.35-11.1 25.5-3.03 7.15-8.95 21.55-13.17 32-4.22 10.45-10.14 25.52-13.16 33.5-3.03 7.98-9.02 24.4-13.31 36.5-4.3 12.1-9.86 28.52-12.36 36.5-2.5 7.98-5.88 19.23-7.53 25-1.64 5.77-4.12 15.23-5.52 21-1.39 5.77-3.3 15-4.24 20.5-1.59 9.31-1.6 10.24-0.06 13.5 0.9 1.93 3.12 4.36 4.91 5.41 1.8 1.06 5.97 2.14 9.27 2.4 3.3 0.27 8.93-0.08 12.5-0.77 3.57-0.69 11.45-2.76 17.5-4.6 6.05-1.83 14.49-3.81 18.75-4.39 4.26-0.58 15.74-1.05 25.5-1.04 10.15 0 21.82 0.61 27.25 1.42 5.23 0.78 12.88 2.58 17 4.01 4.13 1.43 10.76 3.26 14.75 4.08 3.99 0.81 9.84 1.47 13 1.46 3.31-0.01 7.45-0.78 9.75-1.81 2.2-0.98 4.79-2.88 5.76-4.23 1.02-1.42 1.75-4.22 1.75-6.69-0.01-2.34-0.94-9.09-2.08-15-1.14-5.91-3.43-15.93-5.09-22.25-1.66-6.32-4.75-17.35-6.88-24.5-2.12-7.15-5.86-19.07-8.31-26.5-2.46-7.43-6.25-18.45-8.44-24.5-2.19-6.05-6.02-16.63-8.52-23.5-2.49-6.88-7.21-19.25-10.47-27.5-3.27-8.25-8.43-21.07-11.47-28.5-3.04-7.43-8.31-20.02-11.71-28-3.4-7.98-8.29-18.9-10.86-24.28-2.57-5.38-4.97-9.77-5.32-9.75-0.35 0.02-1.05 0.59-1.57 1.28zm337.21 146.79c-4.95 0.41-11.92 1.27-15.5 1.9-3.58 0.64-9.2 2.02-12.5 3.08-3.3 1.06-8.21 3.41-10.91 5.21-2.7 1.8-6.12 5.07-7.59 7.27-1.48 2.2-3.55 6.25-4.6 9-1.43 3.77-1.9 7.59-1.9 15.5 0 9.62 0.26 11.05 3.05 17 1.68 3.57 4.94 8.41 7.25 10.75 2.31 2.34 6.79 5.56 9.95 7.16 3.16 1.6 8.9 3.46 12.75 4.14 4.26 0.75 10.91 1.01 17 0.66 6.08-0.34 12.35-1.37 16-2.61 3.3-1.13 8.81-3.86 12.25-6.08 3.44-2.21 8.39-6.25 11-8.97 2.61-2.72 6.21-7.33 7.99-10.25 1.79-2.91 4.34-8 5.68-11.3 1.33-3.3 3.12-9.37 3.96-13.5 0.85-4.12 1.9-12.57 2.33-18.76l0.79-11.25c-37.2 0.23-52.05 0.63-57 1.05zm709.5 0.05c-5.22 0.44-12.87 1.47-17 2.27-4.12 0.81-9.97 2.38-13 3.51-3.03 1.12-7.64 3.63-10.25 5.58-3.65 2.73-5.62 5.34-8.5 11.25-3.64 7.48-3.75 8.01-3.74 18.75 0 10.27 0.22 11.51 3.09 17.55 1.7 3.58 5.07 8.44 7.49 10.82 2.43 2.38 6.88 5.59 9.91 7.15 3.03 1.55 8.2 3.32 11.5 3.93 3.3 0.61 9.38 1.11 13.5 1.11 4.13 0 10.2-0.5 13.5-1.1 3.3-0.61 8.7-2.33 12-3.81 3.3-1.49 8.65-4.71 11.88-7.15 3.23-2.45 7.91-7.15 10.39-10.45 2.49-3.3 6.02-9.15 7.85-13 1.83-3.85 4-9.7 4.82-13 0.82-3.3 1.96-9.82 2.53-14.5 0.57-4.67 1.03-11.09 1.03-14.25v-5.75c-36.81 0.22-51.78 0.64-57 1.09z"/>
	</g>
</svg>